<svg width="133" height="18" viewBox="0 0 133 18" fill="none" xmlns="http://www.w3.org/2000/svg">
<path d="M0.5 16.12H16.5V0.12H0.5V16.12ZM24.5547 2V3.1875H23.0625V16.25H24.5547V17.4375H21.6172V2H24.5547ZM33.2656 13.7734V15H27.2422V13.7734H33.2656ZM27.5469 3.625V15H26.0391V3.625H27.5469ZM32.4688 8.51562V9.74219H27.2422V8.51562H32.4688ZM33.1875 3.625V4.85938H27.2422V3.625H33.1875ZM37.2812 13.6953L39.5938 6.54688H41.0703L38.0312 15H37.0625L37.2812 13.6953ZM35.3516 6.54688L37.7344 13.7344L37.8984 15H36.9297L33.8672 6.54688H35.3516ZM45.8594 15.1562C45.2708 15.1562 44.737 15.0573 44.2578 14.8594C43.7839 14.6562 43.375 14.3724 43.0312 14.0078C42.6927 13.6432 42.4323 13.2109 42.25 12.7109C42.0677 12.2109 41.9766 11.6641 41.9766 11.0703V10.7422C41.9766 10.0547 42.0781 9.44271 42.2812 8.90625C42.4844 8.36458 42.7604 7.90625 43.1094 7.53125C43.4583 7.15625 43.8542 6.8724 44.2969 6.67969C44.7396 6.48698 45.1979 6.39062 45.6719 6.39062C46.276 6.39062 46.7969 6.49479 47.2344 6.70312C47.6771 6.91146 48.0391 7.20312 48.3203 7.57812C48.6016 7.94792 48.8099 8.38542 48.9453 8.89062C49.0807 9.39062 49.1484 9.9375 49.1484 10.5312V11.1797H42.8359V10H47.7031V9.89062C47.6823 9.51562 47.6042 9.15104 47.4688 8.79688C47.3385 8.44271 47.1302 8.15104 46.8438 7.92188C46.5573 7.69271 46.1667 7.57812 45.6719 7.57812C45.3438 7.57812 45.0417 7.64844 44.7656 7.78906C44.4896 7.92448 44.2526 8.1276 44.0547 8.39844C43.8568 8.66927 43.7031 9 43.5938 9.39062C43.4844 9.78125 43.4297 10.2318 43.4297 10.7422V11.0703C43.4297 11.4714 43.4844 11.849 43.5938 12.2031C43.7083 12.5521 43.8724 12.8594 44.0859 13.125C44.3047 13.3906 44.5677 13.599 44.875 13.75C45.1875 13.901 45.5417 13.9766 45.9375 13.9766C46.4479 13.9766 46.8802 13.8724 47.2344 13.6641C47.5885 13.4557 47.8984 13.1771 48.1641 12.8281L49.0391 13.5234C48.8568 13.7995 48.625 14.0625 48.3438 14.3125C48.0625 14.5625 47.7161 14.7656 47.3047 14.9219C46.8984 15.0781 46.4167 15.1562 45.8594 15.1562ZM52.2812 8.35156V15H50.8359V6.54688H52.2031L52.2812 8.35156ZM51.9375 10.4531L51.3359 10.4297C51.3411 9.85156 51.4271 9.31771 51.5938 8.82812C51.7604 8.33333 51.9948 7.90365 52.2969 7.53906C52.599 7.17448 52.9583 6.89323 53.375 6.69531C53.7969 6.49219 54.263 6.39062 54.7734 6.39062C55.1901 6.39062 55.5651 6.44792 55.8984 6.5625C56.2318 6.67188 56.5156 6.84896 56.75 7.09375C56.9896 7.33854 57.1719 7.65625 57.2969 8.04688C57.4219 8.43229 57.4844 8.90365 57.4844 9.46094V15H56.0312V9.44531C56.0312 9.0026 55.9661 8.64844 55.8359 8.38281C55.7057 8.11198 55.5156 7.91667 55.2656 7.79688C55.0156 7.67188 54.7083 7.60938 54.3438 7.60938C53.9844 7.60938 53.6562 7.6849 53.3594 7.83594C53.0677 7.98698 52.8151 8.19531 52.6016 8.46094C52.3932 8.72656 52.2292 9.03125 52.1094 9.375C51.9948 9.71354 51.9375 10.0729 51.9375 10.4531ZM63.2188 6.54688V7.65625H58.6484V6.54688H63.2188ZM60.1953 4.49219H61.6406V12.9062C61.6406 13.1927 61.6849 13.4089 61.7734 13.5547C61.862 13.7005 61.9766 13.7969 62.1172 13.8438C62.2578 13.8906 62.4089 13.9141 62.5703 13.9141C62.6901 13.9141 62.8151 13.9036 62.9453 13.8828C63.0807 13.8568 63.1823 13.8359 63.25 13.8203L63.2578 15C63.1432 15.0365 62.9922 15.0703 62.8047 15.1016C62.6224 15.138 62.401 15.1562 62.1406 15.1562C61.7865 15.1562 61.4609 15.0859 61.1641 14.9453C60.8672 14.8047 60.6302 14.5703 60.4531 14.2422C60.2812 13.9089 60.1953 13.4609 60.1953 12.8984V4.49219ZM76 13.7734V15H70.3125V13.7734H76ZM70.6094 3.625V15H69.1016V3.625H70.6094ZM77.125 10.8672V10.6875C77.125 10.0781 77.2135 9.51302 77.3906 8.99219C77.5677 8.46615 77.8229 8.01042 78.1562 7.625C78.4896 7.23438 78.8932 6.93229 79.3672 6.71875C79.8411 6.5 80.3724 6.39062 80.9609 6.39062C81.5547 6.39062 82.0885 6.5 82.5625 6.71875C83.0417 6.93229 83.4479 7.23438 83.7812 7.625C84.1198 8.01042 84.3776 8.46615 84.5547 8.99219C84.7318 9.51302 84.8203 10.0781 84.8203 10.6875V10.8672C84.8203 11.4766 84.7318 12.0417 84.5547 12.5625C84.3776 13.0833 84.1198 13.5391 83.7812 13.9297C83.4479 14.3151 83.0443 14.6172 82.5703 14.8359C82.1016 15.0495 81.5703 15.1562 80.9766 15.1562C80.3828 15.1562 79.849 15.0495 79.375 14.8359C78.901 14.6172 78.4948 14.3151 78.1562 13.9297C77.8229 13.5391 77.5677 13.0833 77.3906 12.5625C77.2135 12.0417 77.125 11.4766 77.125 10.8672ZM78.5703 10.6875V10.8672C78.5703 11.2891 78.6198 11.6875 78.7188 12.0625C78.8177 12.4323 78.9661 12.7604 79.1641 13.0469C79.3672 13.3333 79.6198 13.5599 79.9219 13.7266C80.224 13.888 80.5755 13.9688 80.9766 13.9688C81.3724 13.9688 81.7188 13.888 82.0156 13.7266C82.3177 13.5599 82.5677 13.3333 82.7656 13.0469C82.9635 12.7604 83.112 12.4323 83.2109 12.0625C83.3151 11.6875 83.3672 11.2891 83.3672 10.8672V10.6875C83.3672 10.2708 83.3151 9.8776 83.2109 9.50781C83.112 9.13281 82.9609 8.80208 82.7578 8.51562C82.5599 8.22396 82.3099 7.99479 82.0078 7.82812C81.7109 7.66146 81.362 7.57812 80.9609 7.57812C80.5651 7.57812 80.2161 7.66146 79.9141 7.82812C79.6172 7.99479 79.3672 8.22396 79.1641 8.51562C78.9661 8.80208 78.8177 9.13281 78.7188 9.50781C78.6198 9.8776 78.5703 10.2708 78.5703 10.6875ZM90.0156 13.9688C90.3594 13.9688 90.6771 13.8984 90.9688 13.7578C91.2604 13.6172 91.5 13.4245 91.6875 13.1797C91.875 12.9297 91.9818 12.6458 92.0078 12.3281H93.3828C93.3568 12.8281 93.1875 13.2943 92.875 13.7266C92.5677 14.1536 92.1641 14.5 91.6641 14.7656C91.1641 15.026 90.6146 15.1562 90.0156 15.1562C89.3802 15.1562 88.8255 15.0443 88.3516 14.8203C87.8828 14.5964 87.4922 14.2891 87.1797 13.8984C86.8724 13.5078 86.6406 13.0599 86.4844 12.5547C86.3333 12.0443 86.2578 11.5052 86.2578 10.9375V10.6094C86.2578 10.0417 86.3333 9.50521 86.4844 9C86.6406 8.48958 86.8724 8.03906 87.1797 7.64844C87.4922 7.25781 87.8828 6.95052 88.3516 6.72656C88.8255 6.5026 89.3802 6.39062 90.0156 6.39062C90.6771 6.39062 91.2552 6.52604 91.75 6.79688C92.2448 7.0625 92.6328 7.42708 92.9141 7.89062C93.2005 8.34896 93.3568 8.86979 93.3828 9.45312H92.0078C91.9818 9.10417 91.8828 8.78906 91.7109 8.50781C91.5443 8.22656 91.3151 8.0026 91.0234 7.83594C90.737 7.66406 90.401 7.57812 90.0156 7.57812C89.5729 7.57812 89.2005 7.66667 88.8984 7.84375C88.6016 8.01562 88.3646 8.25 88.1875 8.54688C88.0156 8.83854 87.8906 9.16406 87.8125 9.52344C87.7396 9.8776 87.7031 10.2396 87.7031 10.6094V10.9375C87.7031 11.3073 87.7396 11.6719 87.8125 12.0312C87.8854 12.3906 88.0078 12.7161 88.1797 13.0078C88.3568 13.2995 88.5938 13.5339 88.8906 13.7109C89.1927 13.8828 89.5677 13.9688 90.0156 13.9688ZM99.9922 13.5547V9.20312C99.9922 8.86979 99.9245 8.58073 99.7891 8.33594C99.6589 8.08594 99.4609 7.89323 99.1953 7.75781C98.9297 7.6224 98.6016 7.55469 98.2109 7.55469C97.8464 7.55469 97.526 7.61719 97.25 7.74219C96.9792 7.86719 96.7656 8.03125 96.6094 8.23438C96.4583 8.4375 96.3828 8.65625 96.3828 8.89062H94.9375C94.9375 8.58854 95.0156 8.28906 95.1719 7.99219C95.3281 7.69531 95.5521 7.42708 95.8438 7.1875C96.1406 6.94271 96.4948 6.75 96.9062 6.60938C97.3229 6.46354 97.7865 6.39062 98.2969 6.39062C98.9115 6.39062 99.4531 6.49479 99.9219 6.70312C100.396 6.91146 100.766 7.22656 101.031 7.64844C101.302 8.0651 101.438 8.58854 101.438 9.21875V13.1562C101.438 13.4375 101.461 13.737 101.508 14.0547C101.56 14.3724 101.635 14.6458 101.734 14.875V15H100.227C100.154 14.8333 100.096 14.612 100.055 14.3359C100.013 14.0547 99.9922 13.7943 99.9922 13.5547ZM100.242 9.875L100.258 10.8906H98.7969C98.3854 10.8906 98.0182 10.9245 97.6953 10.9922C97.3724 11.0547 97.1016 11.151 96.8828 11.2812C96.6641 11.4115 96.4974 11.5755 96.3828 11.7734C96.2682 11.9661 96.2109 12.1927 96.2109 12.4531C96.2109 12.7188 96.2708 12.9609 96.3906 13.1797C96.5104 13.3984 96.6901 13.5729 96.9297 13.7031C97.1745 13.8281 97.474 13.8906 97.8281 13.8906C98.2708 13.8906 98.6615 13.7969 99 13.6094C99.3385 13.4219 99.6068 13.1927 99.8047 12.9219C100.008 12.651 100.117 12.388 100.133 12.1328L100.75 12.8281C100.714 13.0469 100.615 13.2891 100.453 13.5547C100.292 13.8203 100.076 14.0755 99.8047 14.3203C99.5391 14.5599 99.2214 14.7604 98.8516 14.9219C98.487 15.0781 98.0755 15.1562 97.6172 15.1562C97.0443 15.1562 96.5417 15.0443 96.1094 14.8203C95.6823 14.5964 95.349 14.2969 95.1094 13.9219C94.875 13.5417 94.7578 13.1172 94.7578 12.6484C94.7578 12.1953 94.8464 11.7969 95.0234 11.4531C95.2005 11.1042 95.4557 10.8151 95.7891 10.5859C96.1224 10.3516 96.5234 10.1745 96.9922 10.0547C97.4609 9.9349 97.9844 9.875 98.5625 9.875H100.242ZM107.25 6.54688V7.65625H102.68V6.54688H107.25ZM104.227 4.49219H105.672V12.9062C105.672 13.1927 105.716 13.4089 105.805 13.5547C105.893 13.7005 106.008 13.7969 106.148 13.8438C106.289 13.8906 106.44 13.9141 106.602 13.9141C106.721 13.9141 106.846 13.9036 106.977 13.8828C107.112 13.8568 107.214 13.8359 107.281 13.8203L107.289 15C107.174 15.0365 107.023 15.0703 106.836 15.1016C106.654 15.138 106.432 15.1562 106.172 15.1562C105.818 15.1562 105.492 15.0859 105.195 14.9453C104.898 14.8047 104.661 14.5703 104.484 14.2422C104.312 13.9089 104.227 13.4609 104.227 12.8984V4.49219ZM110.516 6.54688V15H109.062V6.54688H110.516ZM108.953 4.30469C108.953 4.07031 109.023 3.8724 109.164 3.71094C109.31 3.54948 109.523 3.46875 109.805 3.46875C110.081 3.46875 110.292 3.54948 110.438 3.71094C110.589 3.8724 110.664 4.07031 110.664 4.30469C110.664 4.52865 110.589 4.72135 110.438 4.88281C110.292 5.03906 110.081 5.11719 109.805 5.11719C109.523 5.11719 109.31 5.03906 109.164 4.88281C109.023 4.72135 108.953 4.52865 108.953 4.30469ZM112.453 10.8672V10.6875C112.453 10.0781 112.542 9.51302 112.719 8.99219C112.896 8.46615 113.151 8.01042 113.484 7.625C113.818 7.23438 114.221 6.93229 114.695 6.71875C115.169 6.5 115.701 6.39062 116.289 6.39062C116.883 6.39062 117.417 6.5 117.891 6.71875C118.37 6.93229 118.776 7.23438 119.109 7.625C119.448 8.01042 119.706 8.46615 119.883 8.99219C120.06 9.51302 120.148 10.0781 120.148 10.6875V10.8672C120.148 11.4766 120.06 12.0417 119.883 12.5625C119.706 13.0833 119.448 13.5391 119.109 13.9297C118.776 14.3151 118.372 14.6172 117.898 14.8359C117.43 15.0495 116.898 15.1562 116.305 15.1562C115.711 15.1562 115.177 15.0495 114.703 14.8359C114.229 14.6172 113.823 14.3151 113.484 13.9297C113.151 13.5391 112.896 13.0833 112.719 12.5625C112.542 12.0417 112.453 11.4766 112.453 10.8672ZM113.898 10.6875V10.8672C113.898 11.2891 113.948 11.6875 114.047 12.0625C114.146 12.4323 114.294 12.7604 114.492 13.0469C114.695 13.3333 114.948 13.5599 115.25 13.7266C115.552 13.888 115.904 13.9688 116.305 13.9688C116.701 13.9688 117.047 13.888 117.344 13.7266C117.646 13.5599 117.896 13.3333 118.094 13.0469C118.292 12.7604 118.44 12.4323 118.539 12.0625C118.643 11.6875 118.695 11.2891 118.695 10.8672V10.6875C118.695 10.2708 118.643 9.8776 118.539 9.50781C118.44 9.13281 118.289 8.80208 118.086 8.51562C117.888 8.22396 117.638 7.99479 117.336 7.82812C117.039 7.66146 116.69 7.57812 116.289 7.57812C115.893 7.57812 115.544 7.66146 115.242 7.82812C114.945 7.99479 114.695 8.22396 114.492 8.51562C114.294 8.80208 114.146 9.13281 114.047 9.50781C113.948 9.8776 113.898 10.2708 113.898 10.6875ZM123.406 8.35156V15H121.961V6.54688H123.328L123.406 8.35156ZM123.062 10.4531L122.461 10.4297C122.466 9.85156 122.552 9.31771 122.719 8.82812C122.885 8.33333 123.12 7.90365 123.422 7.53906C123.724 7.17448 124.083 6.89323 124.5 6.69531C124.922 6.49219 125.388 6.39062 125.898 6.39062C126.315 6.39062 126.69 6.44792 127.023 6.5625C127.357 6.67188 127.641 6.84896 127.875 7.09375C128.115 7.33854 128.297 7.65625 128.422 8.04688C128.547 8.43229 128.609 8.90365 128.609 9.46094V15H127.156V9.44531C127.156 9.0026 127.091 8.64844 126.961 8.38281C126.831 8.11198 126.641 7.91667 126.391 7.79688C126.141 7.67188 125.833 7.60938 125.469 7.60938C125.109 7.60938 124.781 7.6849 124.484 7.83594C124.193 7.98698 123.94 8.19531 123.727 8.46094C123.518 8.72656 123.354 9.03125 123.234 9.375C123.12 9.71354 123.062 10.0729 123.062 10.4531ZM129.781 3.1875V2H132.734V17.4375H129.781V16.25H131.281V3.1875H129.781Z" fill="#FAFAFA"/>
</svg>
